<svg xmlns="http://www.w3.org/2000/svg" viewBox="0 0 302.0 260.9" role="img" aria-label="Another Beautiful Roof"><g transform="translate(98.0,18.0) scale(1.06)"><path d="M8 92 L41 14 L27 60 L33 63 L48 16 L57 5 L92 92 L69 92 L51 48 L33 92 Z" fill="#F4F5F7"/></g><path d="M34.41395466186906 177.0 46.284223501744805 149.97070192361016H53.54988653567717L65.43706233600483 177.0H58.74317495482305L56.56097335853657 171.81170427599383H42.935407716452865L40.75649227585108 177.0ZM44.97513991008691 166.92228271949048H54.507894485024565L51.81767317223476 160.38308890229064Q51.64791972171457 159.97334944280868 51.37244982114683 159.27089180104412Q51.09697992057908 158.56843415927955 50.80977038410067 157.78102832624236Q50.52256084762227 156.99362249320518 50.26820479673126 156.29317454346415Q50.01384874584025 155.5927265937231 49.883036838988836 155.22766687545067H49.62217507136455Q49.34632841739637 155.9978598589105 48.97372833981281 156.99735800961017Q48.60112826222925 157.99685616030985 48.25244980629954 158.916477287085Q47.90377135036982 159.83609841386013 47.66536122287672 160.39869410616316ZM70.62553244379099 177.0V149.97070192361016H76.3293959137128L89.02988495781537 164.27401548789123Q89.3690468696915 164.5991480773635 89.85784118370131 165.17367692343868Q90.3466354977111 165.74820576951385 90.84699695304946 166.33495263520726Q91.34735840838779 166.92169950090067 91.66098898494553 167.34512329362224L91.92102837790202 167.33800273247434Q91.90186289345554 166.61229676529547 91.87845508764676 165.725809983062Q91.85504728183798 164.8393232008285 91.85504728183798 164.18528928440443V149.97070192361016H97.72478161793057V177.0H92.09477331202159L79.32150917473754 162.5364353737574Q78.63537894742826 161.80074628952988 77.87755432296595 160.88555666078804Q77.11972969850365 159.97036703204623 76.68603892109134 159.4593952027945L76.44489088769205 159.46651576394243Q76.46405637213854 160.00282541065104 76.47966157601107 160.88968080347377Q76.49526677988358 161.7765361962965 76.49526677988358 162.78613477823686V177.0ZM120.04460688557431 177.47230320699708Q115.2341956024281 177.47230320699708 111.73213013136072 175.89005335148846Q108.23006466029334 174.30780349597987 106.35287033076186 171.18724822985013Q104.47567600123038 168.0666929637204 104.47567600123038 163.48648452165108Q104.47567600123038 158.86793651499136 106.35287033076186 155.76377439346848Q108.23006466029334 152.6596122719456 111.73213013136072 151.07900549427933Q115.2341956024281 149.49839871661308 120.04460688557431 149.49839871661308Q124.90280585575726 149.49839871661308 128.3903447194801 151.07900549427933Q131.87788358320296 152.6596122719456 133.75507791273444 155.76377439346848Q135.6322722422659 158.86793651499136 135.6322722422659 163.48648452165108Q135.6322722422659 168.0666929637204 133.75507791273444 171.18724822985013Q131.87788358320296 174.30780349597987 128.3903447194801 175.89005335148846Q124.90280585575726 177.47230320699708 120.04460688557431 177.47230320699708ZM120.05219398146117 172.4812977486901Q122.18149798290025 172.4812977486901 123.88357515392426 171.92720031503688Q125.58565232494827 171.37310288138363 126.79753200034702 170.30101649285058Q128.00941167574578 169.22893010431753 128.65966971008316 167.64190442708073Q129.30992774442052 166.05487874984394 129.30992774442052 164.00216581878786V162.96456730661168Q129.30992774442052 160.8987860703562 128.65966971008316 159.3108332650458Q128.00941167574578 157.72288045973542 126.79753200034702 156.65243714904472Q125.58565232494827 155.58199383835404 123.88357515392426 155.03569900663706Q122.18149798290025 154.48940417492008 120.05219398146117 154.48940417492008Q117.9228899800221 154.48940417492008 116.22081280899809 155.03569900663706Q114.51873563797409 155.58199383835404 113.3086361028623 156.65243714904472Q112.09853656775051 157.72288045973542 111.46453461557536 159.3108332650458Q110.83053266340022 160.8987860703562 110.83053266340022 162.96456730661168V164.00216581878786Q110.83053266340022 166.05487874984394 111.46453461557536 167.64190442708073Q112.09853656775051 169.22893010431753 113.3086361028623 170.30101649285058Q114.51873563797409 171.37310288138363 116.22081280899809 171.92720031503688Q117.9228899800221 172.4812977486901 120.05219398146117 172.4812977486901ZM150.3068761496606 177.0V155.2030716185667H140.0804837599266V149.97070192361016H166.7150135276095V155.2030716185667H156.47527445799753V177.0ZM172.3635790910213 177.0V149.97070192361016H178.53197739935823V160.5966013464045H193.30100226819337V149.97070192361016H199.4694005765303V177.0H193.30100226819337V165.82897104136103H178.53197739935823V177.0ZM207.45458063245164 177.0V149.97070192361016H231.8791125353849V154.97861434236907H213.62626509647325V160.76055013846724H229.786466461281V165.71396519204617H213.62626509647325V171.9920875812411H232.15660713857184V177.0ZM239.0606636391263 177.0V149.97070192361016H257.14633698437376Q260.0976214533297 149.97070192361016 262.02120292331836 151.08616208930232Q263.9447843933071 152.20162225499445 264.90438543639794 154.11890286880575Q265.8639864794888 156.03618348261705 265.8639864794888 158.45950855484162Q265.8639864794888 161.00591560146898 264.654617297771 163.0706662506126Q263.4452481160532 165.13541689975617 261.05212289843894 166.25867966738457L266.65882609860193 177.0H259.78976083385703L254.97763847750406 167.3365018512H245.2290619474632V177.0ZM245.2290619474632 162.42073192410496H255.84013784107245Q257.6035100997711 162.42073192410496 258.5844527390625 161.37079348825677Q259.56539537835397 160.3208550524086 259.56539537835397 158.56465593710237Q259.56539537835397 157.41040016845434 259.13279696457937 156.60547313228815Q258.7001985508047 155.80054609612196 257.8705307897517 155.3753390969497Q257.0408630286987 154.9501320977774 255.84013784107245 154.9501320977774H245.2290619474632Z" fill="#F4F5F7"/><path d="M21.305270053120466 209.94V182.91070192361016H39.49742149802756Q41.65687890267297 182.91070192361016 43.37763490334055 183.74845835592066Q45.09839090400813 184.58621478823113 46.094131588371084 186.08184161038855Q47.08987227273404 187.577468432546 47.08987227273404 189.57791062602496Q47.08987227273404 191.1882068476107 46.489360672044334 192.44768206626958Q45.88884907135463 193.70715728492848 44.87370472197483 194.53282788868896Q43.858560372595036 195.35849849244943 42.59579597748056 195.77775022634611V195.93518462867848Q44.08792371618341 196.2500534333432 45.27330624375422 197.11508263768678Q46.45868877132502 197.98011184203034 47.137917573180914 199.3414067802763Q47.8171463750368 200.70270171852223 47.8171463750368 202.54230310734783Q47.8171463750368 204.99963561833772 46.70076667927966 206.64585040656885Q45.58438698352252 208.29206519480002 43.71882492373358 209.11603259740002Q41.85326286394464 209.94 39.538500115579495 209.94ZM27.473668361457374 204.98603669664254H38.17497001201696Q39.62531781476297 204.98603669664254 40.556809724167536 204.19720231315773Q41.48830163357209 203.40836792967295 41.48830163357209 201.7401269755905Q41.48830163357209 200.7920900186575 41.098985771773826 200.06408756462014Q40.70966990997557 199.33608511058276 39.92563447594352 198.93635753252227Q39.14159904191147 198.5366299544618 37.94608310516652 198.5366299544618H27.473668361457374ZM27.473668361457374 193.78653203628153H37.49711503449056Q38.560162335678285 193.78653203628153 39.28703442057381 193.4009577625816Q40.013906505469336 193.0153834888817 40.3952696203056 192.33582671999864Q40.77663273514186 191.65626995111558 40.77663273514186 190.80590251552468Q40.77663273514186 189.31837691079423 39.92238697515683 188.56071210571696Q39.068141215171806 187.80304730063972 37.70909498088909 187.80304730063972H27.473668361457374ZM54.388982964813195 209.94V182.91070192361016H78.81351486774645V187.91861434236907H60.5606674288348V193.70055013846724H76.72086879364257V198.65396519204617H60.5606674288348V204.9320875812411H79.09100947093339V209.94ZM83.21074766478456 209.94 95.0810165046603 182.91070192361016H102.34667953859267L114.23385533892032 209.94H107.53996795773854L105.35776636145206 204.75170427599383H91.73220071936836L89.55328527876657 209.94ZM93.7719329130024 199.86228271949048H103.30468748794006L100.61446617515026 193.32308890229064Q100.44471272463007 192.91334944280868 100.16924282406231 192.2108918010441Q99.89377292349457 191.50843415927955 99.60656338701617 190.72102832624236Q99.31935385053777 189.93362249320518 99.06499779964676 189.23317454346414Q98.81064174875574 188.5327265937231 98.67982984190432 188.16766687545066H98.41896807428004Q98.14312142031187 188.93785985891049 97.7705213427283 189.93735800961016Q97.39792126514475 190.93685616030984 97.04924280921503 191.856477287085Q96.70056435328532 192.77609841386013 96.4621542257922 193.33869410616316ZM132.69412225213762 210.41230320699708Q128.30828010269573 210.41230320699708 125.31271400350872 209.0522809307916Q122.31714790432169 207.69225865458608 120.78910714299269 205.0582830161673Q119.2610663816637 202.4243073777485 119.2610663816637 198.65607757474868V182.91070192361016H125.42946469000061V198.43238475157986Q125.42946469000061 201.79137463111223 127.31594168004247 203.6046931120588Q129.2024186700843 205.4180115930054 132.69056197156365 205.4180115930054Q136.18199142872766 205.4180115930054 138.08715551950843 203.6046931120588Q139.99231961028917 201.79137463111223 139.99231961028917 198.43238475157986V182.91070192361016H146.1607179186261V198.65607757474868Q146.1607179186261 202.4243073777485 144.6260038173581 205.0582830161673Q143.09128971609013 207.69225865458608 140.10188314099702 209.0522809307916Q137.1124765659039 210.41230320699708 132.69412225213762 210.41230320699708ZM161.85862542079767 209.94V188.1430716185667H151.63223303106366V182.91070192361016H178.26676279874656V188.1430716185667H168.02702372913458V209.94ZM183.91532836215836 209.94V182.91070192361016H190.08372667049528V209.94ZM198.05687355166273 209.94V182.91070192361016H220.86448874275467V187.91861434236907H204.22527185999965V194.4212660755117H219.15543047528573V199.4042565302529H204.22527185999965V209.94ZM240.30840796642332 210.41230320699708Q235.92256581698143 210.41230320699708 232.92699971779442 209.0522809307916Q229.9314336186074 207.69225865458608 228.4033928572784 205.0582830161673Q226.8753520959494 202.4243073777485 226.8753520959494 198.65607757474868V182.91070192361016H233.0437504042863V198.43238475157986Q233.0437504042863 201.79137463111223 234.93022739432814 203.6046931120588Q236.81670438437 205.4180115930054 240.30484768584935 205.4180115930054Q243.79627714301336 205.4180115930054 245.70144123379413 203.6046931120588Q247.60660532457487 201.79137463111223 247.60660532457487 198.43238475157986V182.91070192361016H253.7750036329118V198.65607757474868Q253.7750036329118 202.4243073777485 252.2402895316438 205.0582830161673Q250.70557543037583 207.69225865458608 247.71616885528272 209.0522809307916Q244.7267622801896 210.41230320699708 240.30840796642332 210.41230320699708ZM261.56591145253736 209.94V182.91070192361016H267.7343097608743V204.69072334459153H283.0765775227338V209.94Z" fill="#F4F5F7"/><path d="M86.90621757498633 242.88V215.85070192361016H104.99189092023377Q107.94317538918973 215.85070192361016 109.86675685917842 216.96616208930232Q111.7903383291671 218.08162225499444 112.74993937225798 219.99890286880574Q113.70954041534885 221.91618348261704 113.70954041534885 224.33950855484161Q113.70954041534885 226.88591560146898 112.50017123363105 228.95066625061258Q111.29080205191326 231.01541689975616 108.89767683429896 232.13867966738457L114.50438003446199 242.88H107.63531476971704L102.82319241336411 233.2165018512H93.07461588332323V242.88ZM93.07461588332323 228.30073192410495H103.68569177693247Q105.4490640356311 228.30073192410495 106.43000667492257 227.25079348825676Q107.41094931421402 226.2008550524086 107.41094931421402 224.44465593710237Q107.41094931421402 223.29040016845434 106.97835090043938 222.48547313228815Q106.54575248666474 221.68054609612196 105.71608472561172 221.25533909694968Q104.88641696455872 220.8301320977774 103.68569177693247 220.8301320977774H93.07461588332323ZM134.9870995969446 243.35230320699708Q130.17668831379837 243.35230320699708 126.674622842731 241.77005335148846Q123.17255737166361 240.18780349597986 121.29536304213214 237.06724822985012Q119.41816871260066 233.9466929637204 119.41816871260066 229.36648452165107Q119.41816871260066 224.74793651499135 121.29536304213214 221.64377439346848Q123.17255737166361 218.5396122719456 126.674622842731 216.95900549427932Q130.17668831379837 215.37839871661308 134.9870995969446 215.37839871661308Q139.84529856712754 215.37839871661308 143.3328374308504 216.95900549427932Q146.82037629457324 218.5396122719456 148.6975706241047 221.64377439346848Q150.5747649536362 224.74793651499135 150.5747649536362 229.36648452165107Q150.5747649536362 233.9466929637204 148.6975706241047 237.06724822985012Q146.82037629457324 240.18780349597986 143.3328374308504 241.77005335148846Q139.84529856712754 243.35230320699708 134.9870995969446 243.35230320699708ZM134.99468669283146 238.3612977486901Q137.12399069427053 238.3612977486901 138.82606786529453 237.80720031503688Q140.52814503631853 237.25310288138363 141.7400247117173 236.18101649285057Q142.95190438711606 235.10893010431752 143.60216242145344 233.52190442708073Q144.2524204557908 231.93487874984393 144.2524204557908 229.88216581878785V228.84456730661168Q144.2524204557908 226.7787860703562 143.60216242145344 225.1908332650458Q142.95190438711606 223.60288045973542 141.7400247117173 222.5324371490447Q140.52814503631853 221.46199383835403 138.82606786529453 220.91569900663706Q137.12399069427053 220.36940417492008 134.99468669283146 220.36940417492008Q132.86538269139237 220.36940417492008 131.16330552036837 220.91569900663706Q129.46122834934437 221.46199383835403 128.25112881423257 222.5324371490447Q127.04102927912079 223.60288045973542 126.40702732694564 225.1908332650458Q125.7730253747705 226.7787860703562 125.7730253747705 228.84456730661168V229.88216581878785Q125.7730253747705 231.93487874984393 126.40702732694564 233.52190442708073Q127.04102927912079 235.10893010431752 128.25112881423257 236.18101649285057Q129.46122834934437 237.25310288138363 131.16330552036837 237.80720031503688Q132.86538269139237 238.3612977486901 134.99468669283146 238.3612977486901ZM171.72048152114286 243.35230320699708Q166.91007023799662 243.35230320699708 163.40800476692925 241.77005335148846Q159.90593929586186 240.18780349597986 158.02874496633038 237.06724822985012Q156.1515506367989 233.9466929637204 156.1515506367989 229.36648452165107Q156.1515506367989 224.74793651499135 158.02874496633038 221.64377439346848Q159.90593929586186 218.5396122719456 163.40800476692925 216.95900549427932Q166.91007023799662 215.37839871661308 171.72048152114286 215.37839871661308Q176.5786804913258 215.37839871661308 180.06621935504864 216.95900549427932Q183.55375821877152 218.5396122719456 185.430952548303 221.64377439346848Q187.30814687783447 224.74793651499135 187.30814687783447 229.36648452165107Q187.30814687783447 233.9466929637204 185.430952548303 237.06724822985012Q183.55375821877152 240.18780349597986 180.06621935504864 241.77005335148846Q176.5786804913258 243.35230320699708 171.72048152114286 243.35230320699708ZM171.72806861702972 238.3612977486901Q173.8573726184688 238.3612977486901 175.5594497894928 237.80720031503688Q177.2615269605168 237.25310288138363 178.47340663591555 236.18101649285057Q179.68528631131431 235.10893010431752 180.33554434565167 233.52190442708073Q180.98580237998905 231.93487874984393 180.98580237998905 229.88216581878785V228.84456730661168Q180.98580237998905 226.7787860703562 180.33554434565167 225.1908332650458Q179.68528631131431 223.60288045973542 178.47340663591555 222.5324371490447Q177.2615269605168 221.46199383835403 175.5594497894928 220.91569900663706Q173.8573726184688 220.36940417492008 171.72806861702972 220.36940417492008Q169.59876461559065 220.36940417492008 167.89668744456662 220.91569900663706Q166.19461027354262 221.46199383835403 164.98451073843086 222.5324371490447Q163.77441120331906 223.60288045973542 163.14040925114392 225.1908332650458Q162.50640729896875 226.7787860703562 162.50640729896875 228.84456730661168V229.88216581878785Q162.50640729896875 231.93487874984393 163.14040925114392 233.52190442708073Q163.77441120331906 235.10893010431752 164.98451073843086 236.18101649285057Q166.19461027354262 237.25310288138363 167.89668744456662 237.80720031503688Q169.59876461559065 238.3612977486901 171.72806861702972 238.3612977486901ZM194.07575110268314 242.88V215.85070192361016H216.88336629377508V220.85861434236907H200.24414941102006V227.3612660755117H215.17430802630614V232.3442565302529H200.24414941102006V242.88Z" fill="#F4F5F7"/></svg>