<svg xmlns="http://www.w3.org/2000/svg" viewBox="0 0 475.6 140.8" role="img" aria-label="Another Beautiful Roof"><g transform="translate(16.0,23.4) scale(0.98)"><path d="M8 92 L41 14 L27 60 L33 63 L48 16 L57 5 L92 92 L69 92 L51 48 L33 92 Z" fill="#F4F5F7"/></g><path d="M152.61742429205003 50.0 166.6858910652361 17.96527635390835H175.29704725360037L189.38555190584054 50.0H181.45205575036584L178.86574274735966 43.850908771548255H162.71692420859378L160.1345059086213 50.0ZM165.13438458623415 38.056038778655385H176.43246408245653L173.24405363766863 30.30588314345557Q173.04286436297804 29.82026600629178 172.7163815178607 28.9877236160523Q172.38989867274336 28.155181225812818 172.04950218506525 27.221959497768747Q171.70910569738717 26.288737769724676 171.40764667410895 25.45857723669825Q171.1061876508307 24.628416703671824 170.95115131678455 24.195753333867465H170.64198181441503Q170.31505244674906 25.1085746475976 169.8734523547982 26.293165048426857Q169.4318522628473 27.47775544925612 169.01860372248615 28.567676784693326Q168.60535518212498 29.657598120130533 168.32279503102205 30.324378199897076ZM194.57484981136488 50.0V17.96527635390835H201.33498429423517L216.38741575391228 34.917351689352586Q216.78938542724697 35.30269401761603 217.36869720681415 35.983617094445854Q217.94800898638132 36.66454017127568 218.54102997048602 37.35994386394934Q219.13405095459072 38.055347556623005 219.50576126754805 38.55718316281155L219.8139561036446 38.54874397922883Q219.79124145541175 37.68864801812798 219.76349887074952 36.637997016962345Q219.73575628608725 35.58734601579672 219.73575628608725 34.8121947074423V17.96527635390835H226.692478462197V50.0H220.01987602556412L204.88119260359784 32.85799748000876Q204.06800122308314 31.98606967647986 203.16983870520187 30.901400486859913Q202.27167618732062 29.816731297239965 201.7576723029801 29.211135055163858L201.47186722635874 29.219574238746578Q201.4945818745916 29.85520048669754 201.5130769310331 30.906288359672615Q201.53157198747462 31.957376232647686 201.53157198747462 33.15393751494739V50.0ZM252.1856047053303 50.559766763848394Q246.48437651789774 50.559766763848394 242.3337804040401 48.68450767583819Q238.18318429018248 46.80924858782799 235.95836138110815 43.11081271685943Q233.73353847203379 39.41237684589086 233.73353847203379 33.983981655290165Q233.73353847203379 28.510146980730507 235.95836138110815 24.83114002188858Q238.18318429018248 21.152133063046648 242.3337804040401 19.278821326553302Q246.48437651789774 17.405509590059957 252.1856047053303 17.405509590059957Q257.94347015147304 17.405509590059957 262.07684954551496 19.278821326553302Q266.2102289395568 21.152133063046648 268.4350518486312 24.83114002188858Q270.65987475770555 28.510146980730507 270.65987475770555 33.983981655290165Q270.65987475770555 39.41237684589086 268.4350518486312 43.11081271685943Q266.2102289395568 46.80924858782799 262.07684954551496 48.68450767583819Q257.94347015147304 50.559766763848394 252.1856047053303 50.559766763848394ZM252.194596818974 44.64450103548456Q254.7182163762351 44.64450103548456 256.73549302337466 43.987792965969604Q258.7527696705142 43.331084896454655 260.18907150802386 42.06046399152661Q261.62537334553355 40.789843086598566 262.3960495343778 38.90892376542902Q263.1667257232221 37.02800444425948 263.1667257232221 34.595159488933774V33.36541310413239Q263.1667257232221 30.917079787088845 262.3960495343778 29.035061647461703Q261.62537334553355 27.153043507834564 260.18907150802386 25.884369954423377Q258.7527696705142 24.615696401012187 256.73549302337466 23.96823585971799Q254.7182163762351 23.32077531842379 252.194596818974 23.32077531842379Q249.67097726171286 23.32077531842379 247.6537006145733 23.96823585971799Q245.63642396743373 24.615696401012187 244.20223192581977 25.884369954423377Q242.7680398842058 27.153043507834564 242.0166301631093 29.035061647461703Q241.26522044201286 30.917079787088845 241.26522044201286 33.36541310413239V34.595159488933774Q241.26522044201286 37.02800444425948 242.0166301631093 38.90892376542902Q242.7680398842058 40.789843086598566 244.20223192581977 42.06046399152661Q245.63642396743373 43.331084896454655 247.6537006145733 43.987792965969604Q249.67097726171286 44.64450103548456 252.194596818974 44.64450103548456ZM287.0919979072103 50.0V24.166603399782765H274.9718291490071V17.96527635390835H306.53867924403863V24.166603399782765H294.4026921985726V50.0ZM312.27327546734153 50.0V17.96527635390835H319.5839697587038V30.558934929071988H337.0879992328788V17.96527635390835H344.3986935242411V50.0H337.0879992328788V36.7602619749464H319.5839697587038V50.0ZM352.9026106275553 50.0V17.96527635390835H381.8502039939947V23.90057996132631H360.21719962195124V30.753244608553786H379.3700308691308V36.62395874612881H360.21719962195124V44.06469639258204H382.1790864866607V50.0ZM389.40167196879923 50.0V17.96527635390835H410.83654408168513Q414.33436271155887 17.96527635390835 416.6141629722862 19.28730321695089Q418.8939632330135 20.609330079993423 420.03126817297306 22.881662659325336Q421.1685731129326 25.15399523865725 421.1685731129326 28.02608421314562Q421.1685731129326 31.044048120259543 419.73524667534116 33.49116000072602Q418.3019202377497 35.93827188119249 415.4656236835402 37.26954627245578L422.11060525410375 50.0H413.9694908662579L408.26623474020994 38.5469651569778H396.7123662601615V50.0ZM396.7123662601615 32.72086746560589H409.28845620814286Q411.378378885119 32.72086746560589 412.5409775687237 31.476495986082117Q413.7035762523284 30.232124506558343 413.7035762523284 28.150703332862076Q413.7035762523284 26.782696495945878 413.19086702118807 25.82870889752669Q412.67815779004775 24.8747212991075 411.69484785102196 24.37077226305147Q410.7115379119962 23.86682322699544 409.28845620814286 23.86682322699544H396.7123662601615Z" fill="#F4F5F7"/><path d="M155.91735709999463 88.4V56.36527635390836H177.47842547914377Q180.03778240316797 56.36527635390836 182.0771969224777 57.35817286627634Q184.1166114417874 58.351069378644326 185.29674854918053 60.12366413083091Q186.47688565657367 61.896258883017495 186.47688565657367 64.26715333454811Q186.47688565657367 66.1756525601312 185.7651682039044 67.66836393039358Q185.05345075123512 69.16107530065598 183.85031670752574 70.1396478680758Q182.64718266381635 71.11822043549563 181.15057301034733 71.61511137937319V71.80170030065598Q182.91902070066183 72.17487814322158 184.32391851111612 73.20009794096211Q185.72881632157038 74.22531773870263 186.53382823488107 75.8387043321793Q187.33884014819176 77.45209092565598 187.33884014819176 79.6323592383382Q187.33884014819176 82.54475332543733 186.01572347173885 84.49582270408163Q184.69260679528594 86.44689208272595 182.48157027998053 87.42344604136298Q180.27053376467512 88.4 177.5271112480942 88.4ZM163.2280513913569 82.52863608490969H175.91107556979787Q177.63000629897834 82.52863608490969 178.73399671012447 81.59372126003882Q179.83798712127063 80.65880643516795 179.83798712127063 78.68163197107023Q179.83798712127063 77.55803261470517 179.37657572950974 76.69521489140163Q178.91516433774882 75.83239716809811 177.9859371566738 75.35864596447087Q177.05670997559878 74.88489476084362 175.63980219871587 74.88489476084362H163.2280513913569ZM163.2280513913569 69.25514908003738H175.10769189272955Q176.36759980524835 69.25514908003738 177.2290778317912 68.79817216305969Q178.09055585833403 68.34119524608201 178.54254177221404 67.5357946311095Q178.99452768609405 66.73039401613697 178.99452768609405 65.72255112951073Q178.99452768609405 63.95955782020058 177.98208826685254 63.061584717886795Q176.96964884761104 62.16361161557301 175.35892738475744 62.16361161557301H163.2280513913569ZM194.16768351385267 88.4V56.36527635390836H223.1152768802921V62.30057996132632H201.48227250824866V69.15324460855379H220.63510375542822V75.02395874612881H201.48227250824866V82.46469639258204H223.4441593729581V88.4ZM227.36681204715208 88.4 241.43527882033814 56.36527635390836H250.04643500870242L264.1349396609426 88.4H256.2014435054679L253.6151305024617 82.25090877154827H237.46631196369583L234.88389366372334 88.4ZM239.88377234133617 76.45603877865538H251.18185183755858L247.99344139277068 68.70588314345558Q247.79225211808009 68.22026600629178 247.46576927296275 67.3877236160523Q247.13928642784543 66.55518122581282 246.79888994016733 65.62195949776876Q246.45849345248922 64.68873776972468 246.15703442921097 63.85857723669825Q245.85557540593274 63.02841670367183 245.70053907188662 62.59575333386747H245.39136956951708Q245.06444020185108 63.508574647597605 244.6228401099002 64.69316504842686Q244.18124001794934 65.87775544925613 243.76799147758817 66.96767678469334Q243.35474293722703 68.05759812013054 243.0721827861241 68.72437819989707ZM285.053774521052 88.9597667638484Q279.85573938097275 88.9597667638484 276.3054388189733 87.3478885105678Q272.75513825697385 85.7360102572872 270.94412698428766 82.61426135249458Q269.1331157116014 79.49251244770196 269.1331157116014 75.02646231081326V56.36527635390836H276.4438100029637V74.76134489076131Q276.4438100029637 78.74236993317007 278.679634583754 80.89148813281045Q280.9154591645444 83.04060633245085 285.04955492926064 83.04060633245085Q289.1875453970106 83.04060633245085 291.4455176527507 80.89148813281045Q293.7034899084909 78.74236993317007 293.7034899084909 74.76134489076131V56.36527635390836H301.01418419985316V75.02646231081326Q301.01418419985316 79.49251244770196 299.19526378353555 82.61426135249458Q297.37634336721794 85.7360102572872 293.83334298192244 87.3478885105678Q290.2903425966269 88.9597667638484 285.053774521052 88.9597667638484ZM318.65911160983427 88.4V62.56660339978277H306.538942851631V56.36527635390836H338.1057929466626V62.56660339978277H325.96980590119654V88.4ZM343.8403891699655 88.4V56.36527635390836H351.15108346132774V88.4ZM359.6407390241929 88.4V56.36527635390836H386.6719866580797V62.30057996132632H366.95143331555516V70.00742645986574H384.6464361188572V75.9131929247442H366.95143331555516V88.4ZM408.75663166390916 88.9597667638484Q403.5585965238299 88.9597667638484 400.00829596183047 87.3478885105678Q396.457995399831 85.7360102572872 394.64698412714483 82.61426135249458Q392.8359728544586 79.49251244770196 392.8359728544586 75.02646231081326V56.36527635390836H400.14666714582086V74.76134489076131Q400.14666714582086 78.74236993317007 402.3824917266112 80.89148813281045Q404.6183163074016 83.04060633245085 408.7524120721178 83.04060633245085Q412.89040253986775 83.04060633245085 415.1483747956079 80.89148813281045Q417.40634705134806 78.74236993317007 417.40634705134806 74.76134489076131V56.36527635390836H424.71704134271033V75.02646231081326Q424.71704134271033 79.49251244770196 422.8981209263927 82.61426135249458Q421.0792005100751 85.7360102572872 417.5362001247796 87.3478885105678Q413.99319973948406 88.9597667638484 408.75663166390916 88.9597667638484ZM432.99070986967394 88.4V56.36527635390836H440.3014041610362V82.17863507507147H458.4848326195364V88.4Z" fill="#F4F5F7"/><path d="M155.91735709999463 126.8V94.76527635390835H177.35222921288047Q180.8500478427542 94.76527635390835 183.12984810348155 96.08730321695089Q185.40964836420886 97.40933007999342 186.54695330416843 99.68166265932533Q187.684258244128 101.95399523865724 187.684258244128 104.82608421314562Q187.684258244128 107.84404812025954 186.25093180653653 110.29116000072602Q184.81760536894507 112.73827188119249 181.9813088147355 114.06954627245577L188.62629038529911 126.8H180.48517599745324L174.78191987140534 115.34696515697779H163.2280513913569V126.8ZM163.2280513913569 109.52086746560589H175.8041413393382Q177.89406401631436 109.52086746560589 179.05666269991906 108.27649598608213Q180.21926138352376 107.03212450655835 180.21926138352376 104.95070333286208Q180.21926138352376 103.58269649594587 179.70655215238344 102.62870889752668Q179.19384292124312 101.67472129910749 178.21053298221733 101.17077226305146Q177.22722304319154 100.66682322699543 175.8041413393382 100.66682322699543H163.2280513913569ZM211.94210616305625 127.3597667638484Q206.2408779756237 127.3597667638484 202.09028186176607 125.48450767583819Q197.93968574790844 123.60924858782799 195.7148628388341 119.91081271685943Q193.49003992975975 116.21237684589086 193.49003992975975 110.78398165529016Q193.49003992975975 105.31014698073051 195.7148628388341 101.63114002188857Q197.93968574790844 97.95213306304665 202.09028186176607 96.07882132655331Q206.2408779756237 94.20550959005996 211.94210616305625 94.20550959005996Q217.69997160919903 94.20550959005996 221.83335100324092 96.07882132655331Q225.96673039728282 97.95213306304665 228.19155330635715 101.63114002188857Q230.4163762154315 105.31014698073051 230.4163762154315 110.78398165529016Q230.4163762154315 116.21237684589086 228.19155330635715 119.91081271685943Q225.96673039728282 123.60924858782799 221.83335100324092 125.48450767583819Q217.69997160919903 127.3597667638484 211.94210616305625 127.3597667638484ZM211.95109827669995 121.44450103548455Q214.47471783396105 121.44450103548455 216.49199448110062 120.7877929659696Q218.50927112824021 120.13108489645465 219.94557296574988 118.86046399152661Q221.3818748032595 117.58984308659856 222.15255099210378 115.70892376542902Q222.92322718094806 113.82800444425948 222.92322718094806 111.39515948893377V110.16541310413238Q222.92322718094806 107.71707978708884 222.15255099210378 105.8350616474617Q221.3818748032595 103.95304350783456 219.94557296574988 102.68436995442337Q218.50927112824021 101.41569640101218 216.49199448110062 100.76823585971799Q214.47471783396105 100.1207753184238 211.95109827669995 100.1207753184238Q209.42747871943882 100.1207753184238 207.41020207229926 100.76823585971799Q205.3929254251597 101.41569640101218 203.95873338354573 102.68436995442337Q202.52454134193175 103.95304350783456 201.77313162083527 105.8350616474617Q201.02172189973882 107.71707978708884 201.02172189973882 110.16541310413238V111.39515948893377Q201.02172189973882 113.82800444425948 201.77313162083527 115.70892376542902Q202.52454134193175 117.58984308659856 203.95873338354573 118.86046399152661Q205.3929254251597 120.13108489645465 207.41020207229926 120.7877929659696Q209.42747871943882 121.44450103548455 211.95109827669995 121.44450103548455ZM254.5179662213653 127.3597667638484Q248.81673803393275 127.3597667638484 244.66614192007512 125.48450767583819Q240.5155458062175 123.60924858782799 238.29072289714316 119.91081271685943Q236.0658999880688 116.21237684589086 236.0658999880688 110.78398165529016Q236.0658999880688 105.31014698073051 238.29072289714316 101.63114002188857Q240.5155458062175 97.95213306304665 244.66614192007512 96.07882132655331Q248.81673803393275 94.20550959005996 254.5179662213653 94.20550959005996Q260.27583166750804 94.20550959005996 264.40921106154997 96.07882132655331Q268.54259045559184 97.95213306304665 270.7674133646662 101.63114002188857Q272.99223627374056 105.31014698073051 272.99223627374056 110.78398165529016Q272.99223627374056 116.21237684589086 270.7674133646662 119.91081271685943Q268.54259045559184 123.60924858782799 264.40921106154997 125.48450767583819Q260.27583166750804 127.3597667638484 254.5179662213653 127.3597667638484ZM254.526958335009 121.44450103548455Q257.0505778922701 121.44450103548455 259.06785453940967 120.7877929659696Q261.08513118654923 120.13108489645465 262.52143302405887 118.86046399152661Q263.95773486156855 117.58984308659856 264.72841105041283 115.70892376542902Q265.4990872392571 113.82800444425948 265.4990872392571 111.39515948893377V110.16541310413238Q265.4990872392571 107.71707978708884 264.72841105041283 105.8350616474617Q263.95773486156855 103.95304350783456 262.52143302405887 102.68436995442337Q261.08513118654923 101.41569640101218 259.06785453940967 100.76823585971799Q257.0505778922701 100.1207753184238 254.526958335009 100.1207753184238Q252.00333877774787 100.1207753184238 249.9860621306083 100.76823585971799Q247.96878548346874 101.41569640101218 246.53459344185478 102.68436995442337Q245.1004014002408 103.95304350783456 244.34899167914432 105.8350616474617Q243.59758195804787 107.71707978708884 243.59758195804787 110.16541310413238V111.39515948893377Q243.59758195804787 113.82800444425948 244.34899167914432 115.70892376542902Q245.1004014002408 117.58984308659856 246.53459344185478 118.86046399152661Q247.96878548346874 120.13108489645465 249.9860621306083 120.7877929659696Q252.00333877774787 121.44450103548455 254.526958335009 121.44450103548455ZM280.05310054022783 126.8V94.76527635390835H307.0843481741146V100.70057996132631H287.3637948315901V108.40742645986573H305.05879763489213V114.31319292474419H287.3637948315901V126.8Z" fill="#F4F5F7"/></svg>