<svg xmlns="http://www.w3.org/2000/svg" viewBox="0 0 989.5 68.0" role="img" aria-label="Another Beautiful Roof"><path d="M14.771780365062524 54.0 32.3573638315451 13.956595442385442H43.12130906700045L60.731939882300686 54.0H50.81506968795732L47.58217843419956 46.31363596443532H27.396155260742233L24.16813238577662 54.0ZM30.417980732792667 39.07004847331923H44.54058010307067L40.55506704708577 29.382353929319468Q40.30358045372254 28.77533250786473 39.89547689732588 27.734654520065376Q39.48737334092921 26.693976532266024 39.06187773133158 25.527449372210935Q38.63638212173395 24.360922212155845 38.259558342636154 23.323221545872812Q37.88273456353835 22.285520879589782 37.6889391459807 21.74469166733433H37.302477268018805Q36.893815558436316 22.885718309497 36.34181544349771 24.366456310533575Q35.7898153285591 25.84719431157015 35.27325465310767 27.20959598086666Q34.75669397765624 28.57199765016317 34.40349378877757 29.405472749871347ZM67.6185622642061 54.0V13.956595442385442H76.06873036779399L94.88426969239038 35.14668961169073Q95.38673178405872 35.628367522020035 96.11087150851769 36.47952136805732Q96.83501123297665 37.3306752140946 97.57628746310753 38.19992982993668Q98.31756369323841 39.06918444577876 98.78220158443506 39.69647895351443L99.1674451295558 39.685929974036036Q99.13905181926472 38.61081002265997 99.1043735884369 37.29749627120293Q99.06969535760908 35.9841825197459 99.06969535760908 35.01524338430288V13.956595442385442H107.76559807774623V54.0H99.42484503195516L80.5014907544973 32.57249685001095Q79.48500152885393 31.48258709559983 78.36229838150236 30.126750608574895Q77.23959523415078 28.770914121549957 76.59709037872514 28.013918818954824L76.23983403294844 28.02446779843322Q76.26822734323952 28.819000608371926 76.2913461637914 30.132860449590765Q76.31446498434329 31.44672029080961 76.31446498434329 32.942421893684234V54.0ZM140.03200588166288 54.6997084548105Q132.9054706473722 54.6997084548105 127.71722550505015 52.35563459479774Q122.5289803627281 50.011560734784986 119.74795172638518 45.38851589607428Q116.96692309004226 40.76547105736357 116.96692309004226 33.97997706911271Q116.96692309004226 27.137683725913135 119.74795172638518 22.538925027360722Q122.5289803627281 17.94016632880831 127.71722550505015 15.598526658191627Q132.9054706473722 13.256886987574944 140.03200588166288 13.256886987574944Q147.22933768934132 13.256886987574944 152.3960619318937 15.598526658191627Q157.5627861744461 17.94016632880831 160.343814810789 22.538925027360722Q163.12484344713195 27.137683725913135 163.12484344713195 33.97997706911271Q163.12484344713195 40.76547105736357 160.343814810789 45.38851589607428Q157.5627861744461 50.011560734784986 152.3960619318937 52.35563459479774Q147.22933768934132 54.6997084548105 140.03200588166288 54.6997084548105ZM140.0432460237175 47.3056262943557Q143.1977704702939 47.3056262943557 145.71936627921838 46.48474120746201Q148.24096208814282 45.663856120568326 150.03633938502986 44.07557998940827Q151.83171668191693 42.48730385824821 152.7950619179723 40.13615470678628Q153.75840715402765 37.78500555532435 153.75840715402765 34.74394936116722V33.206766380165476Q153.75840715402765 30.146349733861054 152.7950619179723 27.793827059327132Q151.83171668191693 25.44130438479321 150.03633938502986 23.855462443029225Q148.24096208814282 22.269620501265237 145.71936627921838 21.460294824647487Q143.1977704702939 20.650969148029738 140.0432460237175 20.650969148029738Q136.8887215771411 20.650969148029738 134.36712576821662 21.460294824647487Q131.84552995929218 22.269620501265237 130.05278990727473 23.855462443029225Q128.26004985525728 25.44130438479321 127.32078770388668 27.793827059327132Q126.38152555251608 30.146349733861054 126.38152555251608 33.206766380165476V34.74394936116722Q126.38152555251608 37.78500555532435 127.32078770388668 40.13615470678628Q128.26004985525728 42.48730385824821 130.05278990727473 44.07557998940827Q131.84552995929218 45.663856120568326 134.36712576821662 46.48474120746201Q136.8887215771411 47.3056262943557 140.0432460237175 47.3056262943557ZM184.06499738401297 54.0V21.708254249728455H168.91478643625888V13.956595442385442H208.37334905504832V21.708254249728455H193.2033652482158V54.0ZM215.94159433417695 54.0V13.956595442385442H225.0799621983798V29.698668661339987H246.95999904109857V13.956595442385442H256.09836690530136V54.0H246.95999904109857V37.450327468683H225.0799621983798V54.0ZM267.12826328444413 54.0V13.956595442385442H303.3127549924934V21.375724951657887H276.2714995274391V29.941555760692232H300.2125385864136V37.27994843266101H276.2714995274391V46.58087049072755H303.7238581083259V54.0ZM313.15208996099915 54.0V13.956595442385442H339.9456801021065Q344.31795338944863 13.956595442385442 347.1677037153578 15.609129021188611Q350.017454041267 17.26166259999178 351.4390852162164 20.102078324156672Q352.86071639116585 22.94249404832156 352.86071639116585 26.532605266432025Q352.86071639116585 30.30506015032443 351.06905834417654 33.36395000090752Q349.2774002971872 36.42283985149061 345.7320296044253 38.08693284056972L354.0382565676298 54.0H343.8618635828224L336.73279342526257 39.683706446222246H322.290457825202V54.0ZM322.290457825202 32.40108433200736H338.0105702601786Q340.62297360639883 32.40108433200736 342.0762219609047 30.845619982602642Q343.52947031541055 29.29015563319793 343.52947031541055 26.688379166077596Q343.52947031541055 24.97837061993235 342.8885837764852 23.785886121908362Q342.2476972375598 22.593401623884375 341.01855981377753 21.963465328814337Q339.7894223899953 21.3335290337443 338.0105702601786 21.3335290337443H322.290457825202ZM378.2343057044394 54.0V13.956595442385442H405.1856411783759Q408.3848373334061 13.956595442385442 410.93410548254326 15.197716082845417Q413.48337363168037 16.438836723305393 414.9585450159218 18.65458016353863Q416.43371640016323 20.870323603771865 416.43371640016323 23.833941668185133Q416.43371640016323 26.219565700163994 415.5440695843266 28.085454912991985Q414.65442276849 29.951344125819972 413.1505052138533 31.174559835094755Q411.64658765921655 32.39777554436954 409.7758255923803 33.01888922421647V33.25212537581997Q411.9863852052734 33.71859767902697 413.7425074683413 35.00012242620262Q415.49862973140915 36.28164717337828 416.5048946230475 38.29838041522413Q417.51115951468586 40.31511365706997 417.51115951468586 43.04044904792274Q417.51115951468586 46.68094165679665 415.8572636691197 49.11977838010204Q414.20336782355355 51.55861510340743 411.4395721794218 52.77930755170372Q408.67577653529 54.0 405.2464983895639 54.0ZM387.37267356864226 46.660795106137115H403.2264537916935Q405.37511720316905 46.660795106137115 406.75510521710174 45.492151575048524Q408.13509323103443 44.323508043959926 408.13509323103443 41.85203996383779Q408.13509323103443 40.44754076838146 407.55832899133327 39.36901861425204Q406.98156475163216 38.290496460122625 405.8200307752884 37.698307455588576Q404.6584967989446 37.10611845105452 402.887362077841 37.10611845105452H387.37267356864226ZM387.37267356864226 30.06893635004672H402.2222241953581Q403.79710908600657 30.06893635004672 404.87395661918515 29.49771520382461Q405.9508041523637 28.926494057602508 406.5157865447137 27.91974328888686Q407.0807689370637 26.912992520171212 407.0807689370637 25.653188911888414Q407.0807689370637 23.449447275250716 405.8152196630118 22.32698089735849Q404.54967038895995 21.204514519466258 402.53626856039295 21.204514519466258H387.37267356864226ZM426.44721372176195 54.0V13.956595442385442H462.63170542981123V21.375724951657887H435.59044996475694V29.941555760692232H459.5314890237314V37.27994843266101H435.59044996475694V46.58087049072755H463.04280854564377V54.0ZM468.3461243883862 54.0 485.9317078548688 13.956595442385442H496.6956530903242L514.3062839056244 54.0H504.389413711281L501.15652245752324 46.31363596443532H480.9704992840659L477.74247640910033 54.0ZM483.9923247561164 39.07004847331923H498.1149241263944L494.1294110704095 29.382353929319468Q493.87792447704624 28.77533250786473 493.46982092064957 27.734654520065376Q493.0617173642529 26.693976532266024 492.63622175465525 25.527449372210935Q492.21072614505766 24.360922212155845 491.83390236595983 23.323221545872812Q491.45707858686205 22.285520879589782 491.26328316930443 21.74469166733433H490.8768212913425Q490.46815958176 22.885718309497 489.9161594668214 24.366456310533575Q489.3641593518828 25.84719431157015 488.8475986764314 27.20959598086666Q488.33103800097996 28.57199765016317 487.97783781210126 29.405472749871347ZM540.8548274807611 54.6997084548105Q534.357283555662 54.6997084548105 529.9194078531627 52.684860638209756Q525.4815321506634 50.670012821609006 523.2177680598056 46.76782669061822Q520.9540039689479 42.86564055962744 520.9540039689479 37.28307788851657V13.956595442385442H530.0923718331507V36.951681113451635Q530.0923718331507 41.92796241646258 532.8871525591386 44.61436016601307Q535.6819332851265 47.30075791556356 540.8495529910218 47.30075791556356Q546.0220410757094 47.30075791556356 548.8445063953845 44.61436016601307Q551.6669717150597 41.92796241646258 551.6669717150597 36.951681113451635V13.956595442385442H560.8053395792625V37.28307788851657Q560.8053395792625 42.86564055962744 558.5316890588656 46.76782669061822Q556.2580385384686 50.670012821609006 551.8292880568491 52.684860638209756Q547.4005375752297 54.6997084548105 540.8548274807611 54.6997084548105ZM583.2614988417389 54.0V21.708254249728455H568.1112878939848V13.956595442385442H607.5698505127743V21.708254249728455H592.3998667059418V54.0ZM615.138095791903 54.0V13.956595442385442H624.2764636561058V54.0ZM635.2885331096873 54.0V13.956595442385442H669.0775926520456V21.375724951657887H644.42690097389V31.009283074832172H666.5456544780176V38.39149115593023H644.42690097389V54.0ZM697.0833989093325 54.6997084548105Q690.5858549842334 54.6997084548105 686.147979281734 52.684860638209756Q681.7101035792348 50.670012821609006 679.446339488377 46.76782669061822Q677.1825753975193 42.86564055962744 677.1825753975193 37.28307788851657V13.956595442385442H686.320943261722V36.951681113451635Q686.320943261722 41.92796241646258 689.11572398771 44.61436016601307Q691.910504713698 47.30075791556356 697.0781244195932 47.30075791556356Q702.2506125042808 47.30075791556356 705.0730778239559 44.61436016601307Q707.8955431436311 41.92796241646258 707.8955431436311 36.951681113451635V13.956595442385442H717.0339110078339V37.28307788851657Q717.0339110078339 42.86564055962744 714.7602604874369 46.76782669061822Q712.48660996704 50.670012821609006 708.0578594854205 52.684860638209756Q703.6291090038011 54.6997084548105 697.0833989093325 54.6997084548105ZM727.7759966665385 54.0V13.956595442385442H736.9143645307413V46.22329384383933H759.6436501038665V54.0ZM783.0622940426318 54.0V13.956595442385442H809.8558841837391Q814.2281574710813 13.956595442385442 817.0779077969905 15.609129021188611Q819.9276581228996 17.26166259999178 821.349289297849 20.102078324156672Q822.7709204727985 22.94249404832156 822.7709204727985 26.532605266432025Q822.7709204727985 30.30506015032443 820.9792624258091 33.36395000090752Q819.1876043788199 36.42283985149061 815.6422336860579 38.08693284056972L823.9484606492624 54.0H813.7720676644551L806.6429975068952 39.683706446222246H792.2006619068346V54.0ZM792.2006619068346 32.40108433200736H807.9207743418112Q810.5331776880314 32.40108433200736 811.9864260425372 30.845619982602642Q813.4396743970432 29.29015563319793 813.4396743970432 26.688379166077596Q813.4396743970432 24.97837061993235 812.7987878581177 23.785886121908362Q812.1579013191924 22.593401623884375 810.9287638954102 21.963465328814337Q809.6996264716279 21.3335290337443 807.9207743418112 21.3335290337443H792.2006619068346ZM853.4932303714588 54.6997084548105Q846.3666951371682 54.6997084548105 841.1784499948462 52.35563459479774Q835.9902048525241 50.011560734784986 833.2091762161812 45.38851589607428Q830.4281475798382 40.76547105736357 830.4281475798382 33.97997706911271Q830.4281475798382 27.137683725913135 833.2091762161812 22.538925027360722Q835.9902048525241 17.94016632880831 841.1784499948462 15.598526658191627Q846.3666951371682 13.256886987574944 853.4932303714588 13.256886987574944Q860.6905621791373 13.256886987574944 865.8572864216897 15.598526658191627Q871.024010664242 17.94016632880831 873.8050393005849 22.538925027360722Q876.5860679369279 27.137683725913135 876.5860679369279 33.97997706911271Q876.5860679369279 40.76547105736357 873.8050393005849 45.38851589607428Q871.024010664242 50.011560734784986 865.8572864216897 52.35563459479774Q860.6905621791373 54.6997084548105 853.4932303714588 54.6997084548105ZM853.5044705135135 47.3056262943557Q856.6589949600899 47.3056262943557 859.1805907690143 46.48474120746201Q861.7021865779388 45.663856120568326 863.4975638748258 44.07557998940827Q865.2929411717129 42.48730385824821 866.2562864077682 40.13615470678628Q867.2196316438236 37.78500555532435 867.2196316438236 34.74394936116722V33.206766380165476Q867.2196316438236 30.146349733861054 866.2562864077682 27.793827059327132Q865.2929411717129 25.44130438479321 863.4975638748258 23.855462443029225Q861.7021865779388 22.269620501265237 859.1805907690143 21.460294824647487Q856.6589949600899 20.650969148029738 853.5044705135135 20.650969148029738Q850.349946066937 20.650969148029738 847.8283502580126 21.460294824647487Q845.3067544490882 22.269620501265237 843.5140143970707 23.855462443029225Q841.7212743450532 25.44130438479321 840.7820121936827 27.793827059327132Q839.8427500423121 30.146349733861054 839.8427500423121 33.206766380165476V34.74394936116722Q839.8427500423121 37.78500555532435 840.7820121936827 40.13615470678628Q841.7212743450532 42.48730385824821 843.5140143970707 44.07557998940827Q845.3067544490882 45.663856120568326 847.8283502580126 46.48474120746201Q850.349946066937 47.3056262943557 853.5044705135135 47.3056262943557ZM907.1130554443452 54.6997084548105Q899.9865202100546 54.6997084548105 894.7982750677324 52.35563459479774Q889.6100299254105 50.011560734784986 886.8290012890675 45.38851589607428Q884.0479726527245 40.76547105736357 884.0479726527245 33.97997706911271Q884.0479726527245 27.137683725913135 886.8290012890675 22.538925027360722Q889.6100299254105 17.94016632880831 894.7982750677324 15.598526658191627Q899.9865202100546 13.256886987574944 907.1130554443452 13.256886987574944Q914.3103872520236 13.256886987574944 919.477111494576 15.598526658191627Q924.6438357371284 17.94016632880831 927.4248643734713 22.538925027360722Q930.2058930098142 27.137683725913135 930.2058930098142 33.97997706911271Q930.2058930098142 40.76547105736357 927.4248643734713 45.38851589607428Q924.6438357371284 50.011560734784986 919.477111494576 52.35563459479774Q914.3103872520236 54.6997084548105 907.1130554443452 54.6997084548105ZM907.1242955863997 47.3056262943557Q910.2788200329762 47.3056262943557 912.8004158419006 46.48474120746201Q915.3220116508251 45.663856120568326 917.1173889477121 44.07557998940827Q918.9127662445992 42.48730385824821 919.8761114806546 40.13615470678628Q920.83945671671 37.78500555532435 920.83945671671 34.74394936116722V33.206766380165476Q920.83945671671 30.146349733861054 919.8761114806546 27.793827059327132Q918.9127662445992 25.44130438479321 917.1173889477121 23.855462443029225Q915.3220116508251 22.269620501265237 912.8004158419006 21.460294824647487Q910.2788200329762 20.650969148029738 907.1242955863997 20.650969148029738Q903.9697711398234 20.650969148029738 901.448175330899 21.460294824647487Q898.9265795219744 22.269620501265237 897.1338394699569 23.855462443029225Q895.3410994179395 25.44130438479321 894.4018372665689 27.793827059327132Q893.4625751151984 30.146349733861054 893.4625751151984 33.206766380165476V34.74394936116722Q893.4625751151984 37.78500555532435 894.4018372665689 40.13615470678628Q895.3410994179395 42.48730385824821 897.1338394699569 44.07557998940827Q898.9265795219744 45.663856120568326 901.448175330899 46.48474120746201Q903.9697711398234 47.3056262943557 907.1242955863997 47.3056262943557ZM939.4319733429235 54.0V13.956595442385442H973.2210328852818V21.375724951657887H948.5703412071263V31.009283074832172H970.6890947112538V38.39149115593023H948.5703412071263V54.0Z" fill="#F4F5F7"/></svg>